<svg id="Layer_1" xmlns="http://www.w3.org/2000/svg" viewBox="0 0 58 58.7"><style>.st0{fill:none;stroke:#fff;stroke-width:2;stroke-linecap:round;stroke-linejoin:round;stroke-miterlimit:10}</style><circle class="st0" cx="29" cy="7.2" r="6.2"/><path class="st0" d="M53.3 16.3H4.7c-1.3 0-2.4 1.1-2.4 2.4 0 1.3 1.1 2.4 2.4 2.4h16.2v33.5c0 1.7 1.4 3.1 3.1 3.1 1.7 0 3.1-1.4 3.1-3.1v-15h3.8v15c0 1.7 1.4 3.1 3.1 3.1 1.7 0 3.1-1.4 3.1-3.1V21.1h16.2c1.3 0 2.4-1.1 2.4-2.4 0-1.3-1.1-2.4-2.4-2.4z"/><path class="st0" d="M43.9 30.6c7.8 1.6 13.1 4.5 13.1 7.8 0 5.1-12.5 9.3-28 9.3S1 43.6 1 38.4c0-3.2 5-6.1 12.6-7.7"/></svg>
